<svg width="32" height="32" viewBox="0 0 32 32" fill="none" xmlns="http://www.w3.org/2000/svg">
<path d="M11.7866 10L22.4533 20.6667" stroke="#8C939D" stroke-width="2" stroke-linecap="round"/>
<path fill-rule="evenodd" clip-rule="evenodd" d="M17.0545 11.0849C17.2345 10.5628 17.8037 10.2855 18.3259 10.4656C20.4978 11.2146 22.3128 12.8806 23.5501 15.0357C23.9117 15.6655 23.9979 16.4053 23.8088 17.0873C23.6612 17.6195 23.1102 17.9314 22.5779 17.7838C22.0457 17.6363 21.7339 17.0852 21.8815 16.553C21.9296 16.3795 21.9075 16.1915 21.8157 16.0315C20.7688 14.2081 19.3013 12.9176 17.6738 12.3563C17.1517 12.1762 16.8744 11.607 17.0545 11.0849ZM14.1422 11.1686C14.35 11.6803 14.1037 12.2636 13.592 12.4715C12.0876 13.0825 10.7373 14.3242 9.75704 16.0315C9.63632 16.2418 9.63632 16.5001 9.75705 16.7104C11.1962 19.2169 13.412 20.7043 15.7863 20.7043C17.4741 20.7043 19.0673 19.9595 20.3718 18.6323C20.759 18.2385 21.3921 18.233 21.786 18.6201C22.1799 19.0073 22.1853 19.6404 21.7982 20.0343C20.1828 21.6778 18.0968 22.7043 15.7863 22.7043C12.5127 22.7043 9.71679 20.657 8.02259 17.7062C7.54781 16.8793 7.54781 15.8627 8.02258 15.0357C9.18212 13.0161 10.8476 11.4276 12.8394 10.6185C13.3511 10.4107 13.9344 10.657 14.1422 11.1686Z" fill="#8C939D"/>
<path d="M17.7263 15.8836C17.8322 16.3048 17.798 16.749 17.6291 17.1491C17.4601 17.5492 17.1655 17.8835 16.7898 18.1013C16.414 18.3192 15.9776 18.4088 15.5464 18.3566C15.1153 18.3045 14.7128 18.1134 14.3998 17.8122C14.0869 17.511 13.8805 17.1162 13.8118 16.6874C13.7431 16.2585 13.8159 15.8189 14.0192 15.4351C14.2224 15.0513 14.5451 14.7441 14.9384 14.5599C15.3317 14.3757 15.7743 14.3245 16.1993 14.4141" stroke="#8C939D" stroke-width="2"/>
</svg>
